<svg xmlns="http://www.w3.org/2000/svg" xmlns:xlink="http://www.w3.org/1999/xlink" width="701" height="610" viewBox="0 0 701 610"><defs><style>.a{clip-path:url(#b);}.b{fill:#f3f3f3;}.c{fill:#ebebeb;}.d{fill:#df2020;font-size:20px;font-family:SegoeUI, Segoe UI;}.e{fill:#303030;}.f{fill:#4b81fe;}.g{fill:#707070;}.h{fill:#021261;}.i{fill:#404040;}.j{fill:#3b3b3b;}.k{fill:#ff6259;}.l{fill:#ffc13d;}.m{fill:#17c94b;}.n{fill:#fff;}</style><clipPath id="b"><rect width="701" height="610"/></clipPath></defs><g id="a" class="a"><rect class="n" width="701" height="610"/><rect class="b" width="701" height="610" rx="4"/><rect class="c" width="674" height="487" rx="4" transform="translate(14 108)"/><text class="d" transform="translate(28 144)"><tspan x="0" y="0">const </tspan><tspan class="e" y="0">profile </tspan><tspan class="f" y="0">=</tspan><tspan class="g" y="0"> </tspan><tspan class="e" y="0">{</tspan><tspan class="g"><tspan x="0" y="27" xml:space="preserve">  </tspan><tspan class="f" y="27">name:</tspan><tspan y="27"> </tspan><tspan class="h" y="27">&apos;Willian Rodrigues&apos;</tspan><tspan class="e" y="27">,</tspan><tspan x="0" y="54" xml:space="preserve">  </tspan><tspan class="f" y="54">websiteURL:</tspan><tspan y="54"> </tspan><tspan class="h" y="54">&apos;https://willianrod.com&apos;</tspan><tspan class="e" y="54">,</tspan><tspan x="0" y="81" xml:space="preserve">  </tspan><tspan class="f" y="81">email:</tspan><tspan y="81"> </tspan><tspan class="h" y="81">&apos;hi@willianrod.com&apos;</tspan><tspan class="e" y="81">,</tspan><tspan x="0" y="108" xml:space="preserve">  </tspan><tspan class="f" y="108">aboutMe:</tspan><tspan y="108"> </tspan><tspan class="h" y="108">&apos;Currently studying Computer Science at Universidade Federal &apos;</tspan><tspan x="0" y="135" xml:space="preserve">    </tspan><tspan class="e" y="135">+</tspan><tspan y="135"> </tspan><tspan class="h" y="135">&apos;do Paraná, and working at Smarppy as a fullstack developer&apos;</tspan><tspan class="e" y="135">,</tspan><tspan x="0" y="162" xml:space="preserve">  </tspan><tspan class="f" y="162">knowledge:</tspan><tspan class="e" y="162" xml:space="preserve"> [</tspan></tspan><tspan class="e"><tspan x="0" y="189" xml:space="preserve">    </tspan><tspan class="h" y="189">&apos;JavaScript&apos;</tspan><tspan y="189">,</tspan></tspan><tspan class="g"><tspan x="0" y="216" xml:space="preserve">    </tspan><tspan class="h" y="216">&apos;React&apos;</tspan><tspan class="e" y="216">,</tspan><tspan x="0" y="243" xml:space="preserve">    </tspan><tspan class="h" y="243">&apos;React Native&apos;</tspan><tspan class="e" y="243">,</tspan><tspan x="0" y="270" xml:space="preserve">    </tspan><tspan class="h" y="270">&apos;NodeJS&apos;</tspan><tspan class="e" y="270">,</tspan><tspan x="0" y="297" xml:space="preserve">    </tspan><tspan class="h" y="297">&apos;Knex.js&apos;</tspan><tspan class="e" y="297">,</tspan><tspan x="0" y="324" xml:space="preserve">    </tspan><tspan class="h" y="324">&apos;RethinkDB&apos;</tspan><tspan class="e" y="324">,</tspan><tspan x="0" y="351" xml:space="preserve">    </tspan><tspan class="h" y="351">&apos;MongoDB&apos;</tspan><tspan class="e" y="351">,</tspan><tspan x="0" y="378" xml:space="preserve">    </tspan><tspan class="h" y="378">&apos;MySQL&apos;</tspan><tspan class="e" y="378">,</tspan></tspan><tspan class="e"><tspan x="0" y="405" xml:space="preserve">  ],</tspan><tspan x="0" y="432">};</tspan></tspan></text><path class="i" d="M19.75-6.562,22.813-22.75h4.672L22.438,0H17.719l-3.7-15.219L10.313,0H5.594L.547-22.75H5.219L8.3-6.594l3.75-16.156h3.969ZM34.484,0H29.953V-16.906h4.531Zm-4.8-21.281a2.224,2.224,0,0,1,.68-1.672,2.553,2.553,0,0,1,1.852-.656,2.559,2.559,0,0,1,1.844.656,2.211,2.211,0,0,1,.688,1.672,2.217,2.217,0,0,1-.7,1.688,2.565,2.565,0,0,1-1.836.656,2.565,2.565,0,0,1-1.836-.656A2.217,2.217,0,0,1,29.688-21.281ZM42.969,0H38.438V-24h4.531Zm8.484,0H46.922V-24h4.531Zm8.484,0H55.406V-16.906h4.531Zm-4.8-21.281a2.224,2.224,0,0,1,.68-1.672,2.553,2.553,0,0,1,1.852-.656,2.559,2.559,0,0,1,1.844.656,2.211,2.211,0,0,1,.688,1.672,2.217,2.217,0,0,1-.7,1.688,2.565,2.565,0,0,1-1.836.656,2.565,2.565,0,0,1-1.836-.656A2.217,2.217,0,0,1,55.141-21.281ZM73.453,0A5.014,5.014,0,0,1,73-1.516,5.464,5.464,0,0,1,68.734.313a6,6,0,0,1-4.117-1.437A4.623,4.623,0,0,1,62.984-4.75a4.778,4.778,0,0,1,1.992-4.125,9.83,9.83,0,0,1,5.758-1.453h2.078V-11.3a2.786,2.786,0,0,0-.6-1.875,2.367,2.367,0,0,0-1.9-.7,2.69,2.69,0,0,0-1.789.547,1.858,1.858,0,0,0-.648,1.5H63.359a4.536,4.536,0,0,1,.906-2.719,5.99,5.99,0,0,1,2.563-1.961,9.339,9.339,0,0,1,3.719-.711,7.378,7.378,0,0,1,4.961,1.57,5.493,5.493,0,0,1,1.836,4.414v7.328a8.082,8.082,0,0,0,.672,3.641V0ZM69.719-3.141a3.889,3.889,0,0,0,1.844-.445,2.925,2.925,0,0,0,1.25-1.2V-7.687H71.125q-3.391,0-3.609,2.344l-.016.266a1.808,1.808,0,0,0,.594,1.391A2.306,2.306,0,0,0,69.719-3.141Zm15.25-13.766.141,1.953a5.9,5.9,0,0,1,4.859-2.266,4.905,4.905,0,0,1,4,1.578,7.363,7.363,0,0,1,1.344,4.719V0H90.8V-10.812a2.93,2.93,0,0,0-.625-2.086,2.8,2.8,0,0,0-2.078-.648,3.107,3.107,0,0,0-2.859,1.625V0H80.719V-16.906Zm30.453,8.578h-3.734V0H107V-22.75h8.453a9.556,9.556,0,0,1,6.219,1.8,6.2,6.2,0,0,1,2.188,5.078,7,7,0,0,1-1.008,3.883A6.873,6.873,0,0,1,119.8-9.516l4.922,9.3V0h-5.031Zm-3.734-3.8h3.781a3.871,3.871,0,0,0,2.734-.9,3.211,3.211,0,0,0,.969-2.477,3.437,3.437,0,0,0-.914-2.531,3.8,3.8,0,0,0-2.8-.922h-3.766Zm14.734,3.516a10.026,10.026,0,0,1,.969-4.484,7.092,7.092,0,0,1,2.789-3.047,8.137,8.137,0,0,1,4.227-1.078,7.7,7.7,0,0,1,5.586,2.094,8.4,8.4,0,0,1,2.414,5.688l.031,1.156a8.836,8.836,0,0,1-2.172,6.242A7.549,7.549,0,0,1,134.438.313,7.587,7.587,0,0,1,128.6-2.031a8.992,8.992,0,0,1-2.18-6.375Zm4.516.321a6.319,6.319,0,0,0,.906,3.685,2.99,2.99,0,0,0,2.594,1.275A3,3,0,0,0,137-4.588a6.915,6.915,0,0,0,.922-4.03A6.256,6.256,0,0,0,137-12.279a3,3,0,0,0-2.594-1.3,2.948,2.948,0,0,0-2.562,1.291A7.031,7.031,0,0,0,130.938-8.289Zm13.578-.289a10.188,10.188,0,0,1,1.773-6.3,5.754,5.754,0,0,1,4.852-2.344,5.178,5.178,0,0,1,4.078,1.844V-24h4.531V0h-4.078l-.219-1.8A5.314,5.314,0,0,1,151.109.313a5.739,5.739,0,0,1-4.789-2.352A10.517,10.517,0,0,1,144.516-8.578Zm4.516.336a6.674,6.674,0,0,0,.828,3.646,2.7,2.7,0,0,0,2.406,1.268A3.022,3.022,0,0,0,155.219-5.1v-6.682a2.978,2.978,0,0,0-2.922-1.768Q149.031-13.547,149.031-8.242Zm23.719-4.43a12.268,12.268,0,0,0-1.625-.125q-2.562,0-3.359,1.734V0H163.25V-16.906h4.266l.125,2.016a4.184,4.184,0,0,1,3.766-2.328,4.732,4.732,0,0,1,1.406.2ZM179.688,0h-4.531V-16.906h4.531Zm-4.8-21.281a2.224,2.224,0,0,1,.68-1.672,2.553,2.553,0,0,1,1.852-.656,2.559,2.559,0,0,1,1.844.656,2.211,2.211,0,0,1,.688,1.672,2.217,2.217,0,0,1-.7,1.688,2.565,2.565,0,0,1-1.836.656,2.565,2.565,0,0,1-1.836-.656A2.217,2.217,0,0,1,174.891-21.281Zm7.859,12.7a9.908,9.908,0,0,1,1.852-6.266,6,6,0,0,1,4.992-2.375,5.262,5.262,0,0,1,4.328,1.906l.188-1.594H198.2V-.562A7.226,7.226,0,0,1,197.2,3.3a6.473,6.473,0,0,1-2.836,2.5,9.97,9.97,0,0,1-4.281.859,9.27,9.27,0,0,1-3.625-.742A6.434,6.434,0,0,1,183.781,4l2-2.75a5.29,5.29,0,0,0,4.094,1.891,3.872,3.872,0,0,0,2.8-.961,3.6,3.6,0,0,0,1-2.727v-.906A5.223,5.223,0,0,1,189.563.313a5.984,5.984,0,0,1-4.93-2.383,9.906,9.906,0,0,1-1.883-6.32Zm4.516.336a6.17,6.17,0,0,0,.922,3.607,2.933,2.933,0,0,0,2.531,1.307,3.136,3.136,0,0,0,2.953-1.549V-12a3.128,3.128,0,0,0-2.922-1.549,2.951,2.951,0,0,0-2.555,1.33A6.954,6.954,0,0,0,187.266-8.242ZM211.8-1.719A5.663,5.663,0,0,1,207.172.313a5.341,5.341,0,0,1-4.148-1.562,6.67,6.67,0,0,1-1.461-4.578V-16.906h4.516V-5.972q0,2.644,2.406,2.644a3.26,3.26,0,0,0,3.156-1.6V-16.906h4.531V0h-4.25ZM227.359.313A8.3,8.3,0,0,1,221.3-1.969a8.109,8.109,0,0,1-2.336-6.078v-.437a10.213,10.213,0,0,1,.984-4.555,7.224,7.224,0,0,1,2.789-3.094,7.828,7.828,0,0,1,4.117-1.086,7.016,7.016,0,0,1,5.461,2.188,8.889,8.889,0,0,1,1.992,6.2v1.844H223.547a4.2,4.2,0,0,0,1.32,2.656,3.991,3.991,0,0,0,2.789,1,4.874,4.874,0,0,0,4.078-1.891l2.219,2.484A6.779,6.779,0,0,1,231.2-.492,9.022,9.022,0,0,1,227.359.313Zm-.516-13.891a2.822,2.822,0,0,0-2.18.91,4.714,4.714,0,0,0-1.07,2.605h6.281v-.361a3.362,3.362,0,0,0-.812-2.331A2.911,2.911,0,0,0,226.844-13.578Zm19.188,8.906a1.455,1.455,0,0,0-.82-1.3,9.318,9.318,0,0,0-2.633-.852q-6.031-1.266-6.031-5.125a4.645,4.645,0,0,1,1.867-3.758,7.532,7.532,0,0,1,4.883-1.508,8.107,8.107,0,0,1,5.148,1.516,4.777,4.777,0,0,1,1.93,3.938h-4.516a2.185,2.185,0,0,0-.625-1.6A2.645,2.645,0,0,0,243.281-14a2.7,2.7,0,0,0-1.766.516,1.628,1.628,0,0,0-.625,1.313,1.391,1.391,0,0,0,.711,1.211,7.314,7.314,0,0,0,2.4.8,19.59,19.59,0,0,1,2.844.758q3.578,1.313,3.578,4.547a4.41,4.41,0,0,1-1.984,3.742,8.56,8.56,0,0,1-5.125,1.43,8.941,8.941,0,0,1-3.773-.758,6.331,6.331,0,0,1-2.586-2.078,4.829,4.829,0,0,1-.937-2.852H240.3a2.357,2.357,0,0,0,.891,1.844,3.533,3.533,0,0,0,2.219.641,3.27,3.27,0,0,0,1.961-.492A1.532,1.532,0,0,0,246.031-4.672Z" transform="translate(14 68)"/><path class="f" d="M10.6-6.628H4.308V0H1.59V-15.641h9.937v2.191H4.308V-8.8H10.6Zm9.625,5.489A4.048,4.048,0,0,1,16.962.215,3.608,3.608,0,0,1,14.1-.892a4.707,4.707,0,0,1-.972-3.2v-7.53h2.61v7.5q0,2.213,1.837,2.213a2.58,2.58,0,0,0,2.567-1.364v-8.347h2.61V0h-2.46ZM28.188,0h-2.61V-16.5h2.61Zm5.618,0H31.2V-16.5h2.61Zm9.356-3.158a1.183,1.183,0,0,0-.575-1.063,6.112,6.112,0,0,0-1.907-.645,9.8,9.8,0,0,1-2.224-.709A2.968,2.968,0,0,1,36.5-8.314a3.094,3.094,0,0,1,1.268-2.514,5.011,5.011,0,0,1,3.223-1.01,5.214,5.214,0,0,1,3.368,1.031,3.272,3.272,0,0,1,1.284,2.675h-2.61a1.609,1.609,0,0,0-.559-1.251,2.141,2.141,0,0,0-1.482-.5,2.313,2.313,0,0,0-1.4.4,1.253,1.253,0,0,0-.542,1.063,1.058,1.058,0,0,0,.5.935,6.943,6.943,0,0,0,2.041.671,9.662,9.662,0,0,1,2.412.806,3.415,3.415,0,0,1,1.3,1.123,2.863,2.863,0,0,1,.424,1.59,3.028,3.028,0,0,1-1.3,2.541,5.542,5.542,0,0,1-3.405.972A6.01,6.01,0,0,1,38.479-.3a4.19,4.19,0,0,1-1.74-1.418,3.356,3.356,0,0,1-.623-1.944H38.65a1.839,1.839,0,0,0,.7,1.423,2.713,2.713,0,0,0,1.708.5,2.64,2.64,0,0,0,1.568-.392A1.214,1.214,0,0,0,43.162-3.158Zm8.11-11.29v2.825h2.052v1.934H51.272V-3.2a1.429,1.429,0,0,0,.263.961,1.22,1.22,0,0,0,.94.3,4.021,4.021,0,0,0,.913-.107v2.02A6.429,6.429,0,0,1,51.67.215q-3.008,0-3.008-3.319V-9.689H46.75v-1.934h1.912v-2.825ZM62.262,0a4.029,4.029,0,0,1-.3-1.085A4.063,4.063,0,0,1,58.91.215a4.1,4.1,0,0,1-2.857-1,3.2,3.2,0,0,1-1.106-2.471,3.3,3.3,0,0,1,1.38-2.852A6.689,6.689,0,0,1,60.274-7.1h1.6v-.763a2.036,2.036,0,0,0-.5-1.445,2,2,0,0,0-1.536-.542,2.3,2.3,0,0,0-1.461.446A1.38,1.38,0,0,0,57.8-8.271h-2.61a2.9,2.9,0,0,1,.634-1.789,4.222,4.222,0,0,1,1.724-1.305,6.056,6.056,0,0,1,2.433-.473,4.877,4.877,0,0,1,3.255,1.026,3.658,3.658,0,0,1,1.246,2.884v5.242a5.941,5.941,0,0,0,.44,2.5V0ZM59.394-1.88a2.969,2.969,0,0,0,1.456-.376,2.512,2.512,0,0,0,1.026-1.01V-5.457H60.468a3.848,3.848,0,0,0-2.181.5,1.636,1.636,0,0,0-.73,1.429,1.525,1.525,0,0,0,.5,1.2A1.934,1.934,0,0,0,59.394-1.88Zm12.6.011a2.36,2.36,0,0,0,1.622-.569A1.945,1.945,0,0,0,74.3-3.846h2.46a3.834,3.834,0,0,1-.677,2.025A4.439,4.439,0,0,1,74.368-.333a5.122,5.122,0,0,1-2.342.548,4.956,4.956,0,0,1-3.867-1.579A6.263,6.263,0,0,1,66.73-5.726v-.269a6.159,6.159,0,0,1,1.418-4.249,4.911,4.911,0,0,1,3.867-1.6,4.775,4.775,0,0,1,3.378,1.208,4.329,4.329,0,0,1,1.37,3.174H74.3A2.39,2.39,0,0,0,73.622-9.1a2.195,2.195,0,0,0-1.627-.645,2.3,2.3,0,0,0-1.955.918,4.687,4.687,0,0,0-.7,2.788v.419a4.764,4.764,0,0,0,.682,2.82A2.3,2.3,0,0,0,71.994-1.869ZM82.511-4.984l-1.16,1.192V0H78.74V-16.5h2.61v9.518L82.167-8l3.212-3.62h3.137L84.2-6.778,88.978,0H85.959ZM95.949,0V-15.641h4.619a7.245,7.245,0,0,1,3.679.924,6.3,6.3,0,0,1,2.487,2.621,8.32,8.32,0,0,1,.881,3.889v.784a8.286,8.286,0,0,1-.886,3.91,6.223,6.223,0,0,1-2.524,2.6A7.581,7.581,0,0,1,100.45,0Zm2.718-13.449V-2.17h1.772a4.081,4.081,0,0,0,3.282-1.337,5.826,5.826,0,0,0,1.166-3.84v-.87a5.978,5.978,0,0,0-1.106-3.889,3.923,3.923,0,0,0-3.212-1.343ZM115.188.215a5.4,5.4,0,0,1-4.023-1.563,5.67,5.67,0,0,1-1.542-4.163v-.322a6.974,6.974,0,0,1,.671-3.11,5.11,5.11,0,0,1,1.885-2.132,4.984,4.984,0,0,1,2.707-.763,4.562,4.562,0,0,1,3.668,1.515,6.4,6.4,0,0,1,1.294,4.286v1.053h-7.595a3.491,3.491,0,0,0,.961,2.277,2.886,2.886,0,0,0,2.122.838,3.535,3.535,0,0,0,2.922-1.45l1.407,1.343A4.7,4.7,0,0,1,117.8-.36,5.835,5.835,0,0,1,115.188.215Zm-.312-9.958a2.2,2.2,0,0,0-1.735.752A3.9,3.9,0,0,0,112.3-6.9h4.974V-7.09a3.173,3.173,0,0,0-.7-1.982A2.181,2.181,0,0,0,114.877-9.743Zm10.957,6.435,2.46-8.314h2.7L126.962,0H124.7l-4.061-11.623h2.707Zm11.9,3.523a5.4,5.4,0,0,1-4.023-1.563,5.67,5.67,0,0,1-1.542-4.163v-.322a6.974,6.974,0,0,1,.671-3.11,5.11,5.11,0,0,1,1.885-2.132,4.984,4.984,0,0,1,2.707-.763,4.562,4.562,0,0,1,3.668,1.515A6.4,6.4,0,0,1,142.4-6.037v1.053H134.8a3.491,3.491,0,0,0,.961,2.277,2.886,2.886,0,0,0,2.122.838,3.535,3.535,0,0,0,2.922-1.45l1.407,1.343A4.7,4.7,0,0,1,140.352-.36,5.835,5.835,0,0,1,137.736.215Zm-.312-9.958a2.2,2.2,0,0,0-1.735.752,3.9,3.9,0,0,0-.843,2.095h4.974V-7.09a3.173,3.173,0,0,0-.7-1.982A2.181,2.181,0,0,0,137.425-9.743ZM147.2,0h-2.61V-16.5h2.61Zm2.353-5.919A6.854,6.854,0,0,1,150.229-9a4.943,4.943,0,0,1,1.9-2.105,5.357,5.357,0,0,1,2.814-.736,5.077,5.077,0,0,1,3.819,1.515,5.957,5.957,0,0,1,1.584,4.018l.011.612a6.915,6.915,0,0,1-.661,3.072,4.883,4.883,0,0,1-1.891,2.095,5.4,5.4,0,0,1-2.841.741,5.042,5.042,0,0,1-3.937-1.638,6.274,6.274,0,0,1-1.477-4.367Zm2.61.226a4.683,4.683,0,0,0,.741,2.809,2.41,2.41,0,0,0,2.063,1.015A2.383,2.383,0,0,0,157.024-2.9a5.173,5.173,0,0,0,.736-3.019A4.623,4.623,0,0,0,157-8.712a2.418,2.418,0,0,0-2.057-1.031,2.4,2.4,0,0,0-2.03,1.015A5.075,5.075,0,0,0,152.163-5.693Zm20.582,0a6.92,6.92,0,0,1-1.225,4.3A3.922,3.922,0,0,1,168.233.215a3.948,3.948,0,0,1-3.062-1.257V4.469h-2.61V-11.623h2.406l.107,1.182a3.834,3.834,0,0,1,3.126-1.4,3.962,3.962,0,0,1,3.335,1.584,7.1,7.1,0,0,1,1.208,4.4Zm-2.6-.226a4.848,4.848,0,0,0-.693-2.761A2.252,2.252,0,0,0,167.471-9.7a2.4,2.4,0,0,0-2.3,1.321v5.156a2.424,2.424,0,0,0,2.32,1.354,2.25,2.25,0,0,0,1.95-1A5.336,5.336,0,0,0,170.146-5.919ZM180.071.215a5.4,5.4,0,0,1-4.023-1.563,5.67,5.67,0,0,1-1.542-4.163v-.322a6.974,6.974,0,0,1,.671-3.11,5.11,5.11,0,0,1,1.885-2.132,4.984,4.984,0,0,1,2.707-.763,4.562,4.562,0,0,1,3.668,1.515,6.4,6.4,0,0,1,1.294,4.286v1.053h-7.595a3.491,3.491,0,0,0,.961,2.277,2.886,2.886,0,0,0,2.122.838,3.535,3.535,0,0,0,2.922-1.45l1.407,1.343A4.7,4.7,0,0,1,182.687-.36,5.835,5.835,0,0,1,180.071.215Zm-.312-9.958a2.2,2.2,0,0,0-1.735.752,3.9,3.9,0,0,0-.843,2.095h4.974V-7.09a3.173,3.173,0,0,0-.7-1.982A2.181,2.181,0,0,0,179.76-9.743Zm13.084.5a6.459,6.459,0,0,0-1.063-.086,2.394,2.394,0,0,0-2.417,1.375V0h-2.61V-11.623h2.492l.064,1.3a2.941,2.941,0,0,1,2.621-1.515,2.444,2.444,0,0,1,.924.15Z" transform="translate(14 92)"/><path class="j" d="M3,0H698a3,3,0,0,1,3,3V27a0,0,0,0,1,0,0H0a0,0,0,0,1,0,0V3A3,3,0,0,1,3,0Z"/><circle class="k" cx="7" cy="7" r="7" transform="translate(14 7)"/><circle class="l" cx="7" cy="7" r="7" transform="translate(35 7)"/><circle class="m" cx="7" cy="7" r="7" transform="translate(56 7)"/><g transform="translate(588.232 44.306)"><g transform="translate(69.961 21.857)"><path class="f" d="M133.795,247.008l-3.607-5.411,3.607-5.411a.993.993,0,1,0-1.653-1.1l-3.974,5.962a.994.994,0,0,0,0,1.1l3.974,5.962a.992.992,0,0,0,.827.443.969.969,0,0,0,.55-.169A.993.993,0,0,0,133.795,247.008Z" transform="translate(-128 -234.641)"/></g><g transform="translate(77.909 19.872)"><path class="f" d="M220.628,213.395a1,1,0,0,0-1.28.58l-5.962,15.9a.991.991,0,0,0,.58,1.28.98.98,0,0,0,.35.064,1,1,0,0,0,.93-.644l5.962-15.9A.991.991,0,0,0,220.628,213.395Z" transform="translate(-213.322 -213.331)"/></g><g transform="translate(87.846 21.859)"><path class="f" d="M325.8,241.068l-3.975-5.962a.993.993,0,1,0-1.653,1.1l3.607,5.411-3.607,5.411a.994.994,0,0,0,.276,1.377.982.982,0,0,0,.55.167,1,1,0,0,0,.827-.441l3.975-5.962A1,1,0,0,0,325.8,241.068Z" transform="translate(-320.002 -234.663)"/></g><g transform="translate(63.999)"><path class="f" d="M98.776,0H76.916a1.02,1.02,0,0,0-.386.078.683.683,0,0,0-.1.068,1.071,1.071,0,0,0-.219.145L64.289,12.213a.985.985,0,0,0-.107.161.919.919,0,0,0-.105.159,1.01,1.01,0,0,0-.077.384V46.7a.994.994,0,0,0,.994.994H98.776a.994.994,0,0,0,.994-.994V.994A.994.994,0,0,0,98.776,0ZM75.923,3.392v8.531H67.391Zm21.86,42.314h-31.8v-31.8h10.93a.994.994,0,0,0,.994-.994V1.987H97.782V45.706Z" transform="translate(-63.999)"/></g></g></g></svg>