<svg width="701" height="610" viewBox="0 0 701 610" fill="none" xmlns="http://www.w3.org/2000/svg">
<path d="M701 0H0V610H701V0Z" fill="white"/>
<path d="M697 0H4C1.79086 0 0 1.79086 0 4V606C0 608.209 1.79086 610 4 610H697C699.209 610 701 608.209 701 606V4C701 1.79086 699.209 0 697 0Z" fill="#F3F3F3"/>
<path d="M684 108H18C15.7909 108 14 109.791 14 112V591C14 593.209 15.7909 595 18 595H684C686.209 595 688 593.209 688 591V112C688 109.791 686.209 108 684 108Z" fill="#EBEBEB"/>
<path d="M33.6055 140.721C34.25 140.721 34.8132 140.525 35.2949 140.135C35.7767 139.744 36.0436 139.256 36.0957 138.67H37.8047C37.7721 139.275 37.5638 139.852 37.1797 140.398C36.7956 140.945 36.2812 141.382 35.6367 141.707C34.9987 142.033 34.3216 142.195 33.6055 142.195C32.1667 142.195 31.0208 141.717 30.168 140.76C29.3216 139.796 28.8984 138.481 28.8984 136.814V136.512C28.8984 135.483 29.0872 134.568 29.4648 133.768C29.8424 132.967 30.3828 132.345 31.0859 131.902C31.7956 131.46 32.6322 131.238 33.5957 131.238C34.7806 131.238 35.7637 131.593 36.5449 132.303C37.3327 133.012 37.7526 133.934 37.8047 135.066H36.0957C36.0436 134.383 35.7832 133.823 35.3145 133.387C34.8522 132.944 34.2793 132.723 33.5957 132.723C32.6777 132.723 31.9648 133.055 31.457 133.719C30.9557 134.376 30.7051 135.33 30.7051 136.58V136.922C30.7051 138.139 30.9557 139.077 31.457 139.734C31.9583 140.392 32.6745 140.721 33.6055 140.721ZM39.3574 136.619C39.3574 135.584 39.5592 134.653 39.9629 133.826C40.373 132.999 40.9395 132.361 41.6621 131.912C42.3913 131.463 43.2214 131.238 44.1523 131.238C45.5911 131.238 46.7533 131.736 47.6387 132.732C48.5306 133.729 48.9766 135.053 48.9766 136.707V136.834C48.9766 137.863 48.778 138.787 48.3809 139.607C47.9902 140.421 47.4271 141.056 46.6914 141.512C45.9622 141.967 45.1224 142.195 44.1719 142.195C42.7396 142.195 41.5775 141.697 40.6855 140.701C39.8001 139.705 39.3574 138.387 39.3574 136.746V136.619ZM41.1738 136.834C41.1738 138.006 41.444 138.947 41.9844 139.656C42.5312 140.366 43.2604 140.721 44.1719 140.721C45.0898 140.721 45.819 140.363 46.3594 139.646C46.8997 138.924 47.1699 137.915 47.1699 136.619C47.1699 135.46 46.8932 134.523 46.3398 133.807C45.793 133.084 45.0638 132.723 44.1523 132.723C43.2604 132.723 42.541 133.077 41.9941 133.787C41.4473 134.497 41.1738 135.512 41.1738 136.834ZM52.9512 131.434L53.0098 132.762C53.8171 131.746 54.8717 131.238 56.1738 131.238C58.4069 131.238 59.5332 132.498 59.5527 135.018V142H57.7461V135.008C57.7396 134.246 57.5638 133.683 57.2188 133.318C56.8802 132.954 56.3496 132.771 55.627 132.771C55.041 132.771 54.5267 132.928 54.084 133.24C53.6413 133.553 53.2962 133.963 53.0488 134.471V142H51.2422V131.434H52.9512ZM68.4297 139.197C68.4297 138.709 68.2441 138.331 67.873 138.064C67.5085 137.791 66.8672 137.557 65.9492 137.361C65.0378 137.166 64.3118 136.932 63.7715 136.658C63.2376 136.385 62.8405 136.059 62.5801 135.682C62.3262 135.304 62.1992 134.855 62.1992 134.334C62.1992 133.468 62.5638 132.736 63.293 132.137C64.0286 131.538 64.9661 131.238 66.1055 131.238C67.3034 131.238 68.2734 131.548 69.0156 132.166C69.7643 132.785 70.1387 133.576 70.1387 134.539H68.3223C68.3223 134.044 68.1107 133.618 67.6875 133.26C67.2708 132.902 66.7435 132.723 66.1055 132.723C65.4479 132.723 64.9336 132.866 64.5625 133.152C64.1914 133.439 64.0059 133.813 64.0059 134.275C64.0059 134.712 64.1784 135.04 64.5234 135.262C64.8685 135.483 65.4902 135.695 66.3887 135.896C67.2936 136.098 68.026 136.339 68.5859 136.619C69.1458 136.899 69.5592 137.238 69.8262 137.635C70.0996 138.025 70.2363 138.504 70.2363 139.07C70.2363 140.014 69.8587 140.773 69.1035 141.346C68.3483 141.912 67.3685 142.195 66.1641 142.195C65.3177 142.195 64.569 142.046 63.918 141.746C63.2669 141.447 62.7559 141.03 62.3848 140.496C62.0202 139.956 61.8379 139.373 61.8379 138.748H63.6445C63.6771 139.354 63.918 139.835 64.3672 140.193C64.8229 140.545 65.4219 140.721 66.1641 140.721C66.8477 140.721 67.3945 140.584 67.8047 140.311C68.2214 140.031 68.4297 139.66 68.4297 139.197ZM75.041 128.875V131.434H77.0137V132.83H75.041V139.383C75.041 139.806 75.1289 140.125 75.3047 140.34C75.4805 140.548 75.7799 140.652 76.2031 140.652C76.4115 140.652 76.6979 140.613 77.0625 140.535V142C76.5872 142.13 76.125 142.195 75.6758 142.195C74.8685 142.195 74.2598 141.951 73.8496 141.463C73.4395 140.975 73.2344 140.281 73.2344 139.383V132.83H71.3105V131.434H73.2344V128.875H75.041Z" fill="#DF2020"/>
<path d="M93.0195 136.834C93.0195 138.442 92.6517 139.738 91.916 140.721C91.1803 141.704 90.1842 142.195 88.9277 142.195C87.6452 142.195 86.6361 141.788 85.9004 140.975V146.062H84.0938V131.434H85.7441L85.832 132.605C86.5677 131.694 87.5898 131.238 88.8984 131.238C90.168 131.238 91.1706 131.717 91.9062 132.674C92.6484 133.631 93.0195 134.962 93.0195 136.668V136.834ZM91.2129 136.629C91.2129 135.438 90.959 134.497 90.4512 133.807C89.9434 133.117 89.2467 132.771 88.3613 132.771C87.2676 132.771 86.4473 133.257 85.9004 134.227V139.275C86.4408 140.239 87.2676 140.721 88.3809 140.721C89.2467 140.721 89.9336 140.379 90.4414 139.695C90.9557 139.005 91.2129 137.983 91.2129 136.629ZM100.432 133.055C100.158 133.009 99.862 132.986 99.543 132.986C98.3581 132.986 97.554 133.491 97.1309 134.5V142H95.3242V131.434H97.082L97.1113 132.654C97.7038 131.71 98.5436 131.238 99.6309 131.238C99.9824 131.238 100.249 131.284 100.432 131.375V133.055ZM101.428 136.619C101.428 135.584 101.63 134.653 102.033 133.826C102.443 132.999 103.01 132.361 103.732 131.912C104.462 131.463 105.292 131.238 106.223 131.238C107.661 131.238 108.824 131.736 109.709 132.732C110.601 133.729 111.047 135.053 111.047 136.707V136.834C111.047 137.863 110.848 138.787 110.451 139.607C110.061 140.421 109.497 141.056 108.762 141.512C108.033 141.967 107.193 142.195 106.242 142.195C104.81 142.195 103.648 141.697 102.756 140.701C101.87 139.705 101.428 138.387 101.428 136.746V136.619ZM103.244 136.834C103.244 138.006 103.514 138.947 104.055 139.656C104.602 140.366 105.331 140.721 106.242 140.721C107.16 140.721 107.889 140.363 108.43 139.646C108.97 138.924 109.24 137.915 109.24 136.619C109.24 135.46 108.964 134.523 108.41 133.807C107.863 133.084 107.134 132.723 106.223 132.723C105.331 132.723 104.611 133.077 104.064 133.787C103.518 134.497 103.244 135.512 103.244 136.834ZM113.918 142V132.83H112.248V131.434H113.918V130.535C113.918 129.357 114.253 128.439 114.924 127.781C115.601 127.124 116.555 126.795 117.785 126.795C118.514 126.795 119.436 126.993 120.549 127.391L120.246 128.914C119.432 128.589 118.658 128.426 117.922 128.426C117.147 128.426 116.587 128.602 116.242 128.953C115.904 129.298 115.734 129.819 115.734 130.516V131.434H117.893V132.83H115.734V142H113.918ZM121.447 142H119.631V131.434H121.447V142ZM126.35 142H124.543V127H126.35V142ZM133.635 142.195C132.202 142.195 131.037 141.727 130.139 140.789C129.24 139.845 128.791 138.585 128.791 137.01V136.678C128.791 135.63 128.99 134.695 129.387 133.875C129.79 133.048 130.35 132.404 131.066 131.941C131.789 131.473 132.57 131.238 133.41 131.238C134.784 131.238 135.852 131.691 136.613 132.596C137.375 133.501 137.756 134.796 137.756 136.482V137.234H130.598C130.624 138.276 130.926 139.119 131.506 139.764C132.092 140.402 132.834 140.721 133.732 140.721C134.37 140.721 134.911 140.59 135.354 140.33C135.796 140.07 136.184 139.725 136.516 139.295L137.619 140.154C136.734 141.515 135.406 142.195 133.635 142.195ZM133.41 132.723C132.681 132.723 132.069 132.99 131.574 133.523C131.079 134.051 130.773 134.793 130.656 135.75H135.949V135.613C135.897 134.695 135.65 133.986 135.207 133.484C134.764 132.977 134.165 132.723 133.41 132.723ZM165.559 145.574C164.406 145.249 163.537 144.712 162.951 143.963C162.372 143.221 162.082 142.238 162.082 141.014V139.07C162.082 137.488 161.392 136.697 160.012 136.697V135.281C161.392 135.281 162.082 134.493 162.082 132.918V130.887C162.095 129.695 162.385 128.735 162.951 128.006C163.524 127.27 164.393 126.736 165.559 126.404L165.93 127.527C164.569 127.964 163.889 129.1 163.889 130.936V132.908C163.889 134.386 163.345 135.415 162.258 135.994C163.345 136.58 163.889 137.618 163.889 139.109V141.121C163.908 142.911 164.589 144.021 165.93 144.451L165.559 145.574ZM225.783 125.75H229.475V145.047H225.783V143.562H227.668V127.234H225.783V125.75ZM232.316 144.832L231.291 144.129C231.903 143.276 232.222 142.397 232.248 141.492V139.861H234.016V141.277C234.016 141.935 233.853 142.592 233.527 143.25C233.208 143.908 232.805 144.435 232.316 144.832Z" fill="#303030"/>
<path d="M153.078 134.051H144.934V132.479H153.078V134.051ZM153.078 138.104H144.934V136.541H153.078V138.104Z" fill="#4B81FE"/>
<path d="M24.6 85.372H18.308V92H15.59V76.359H25.527V78.55H18.308V83.2H24.6V85.372ZM34.225 90.861C33.8188 91.3186 33.3142 91.6782 32.749 91.9127C32.1839 92.1473 31.5729 92.2506 30.962 92.215C30.4329 92.2522 29.9022 92.1723 29.4075 91.9809C28.9128 91.7896 28.4664 91.4915 28.1 91.108C27.3952 90.1963 27.0494 89.0577 27.128 87.908V80.378H29.738V87.878C29.738 89.3533 30.3504 90.091 31.575 90.091C32.0904 90.1479 32.611 90.0482 33.0689 89.8049C33.5268 89.5616 33.9008 89.186 34.142 88.727V80.38H36.752V92H34.292L34.225 90.861ZM42.188 92H39.578V75.5H42.188V92ZM47.806 92H45.2V75.5H47.81L47.806 92ZM57.162 88.842C57.1706 88.6295 57.1217 88.4186 57.0205 88.2315C56.9193 88.0445 56.7696 87.8881 56.587 87.779C55.9914 87.4601 55.347 87.2421 54.68 87.134C53.9131 86.9871 53.1665 86.7491 52.456 86.425C51.891 86.2202 51.4015 85.8486 51.0522 85.3596C50.703 84.8705 50.5104 84.2869 50.5 83.686C50.4975 83.1965 50.611 82.7134 50.8315 82.2764C51.0519 81.8394 51.3729 81.4609 51.768 81.172C52.6931 80.4725 53.8322 80.1155 54.991 80.162C56.1993 80.1046 57.3899 80.4691 58.359 81.193C58.7687 81.5062 59.0985 81.9117 59.3217 82.3766C59.5448 82.8415 59.6549 83.3525 59.643 83.868H57.033C57.0377 83.6312 56.99 83.3963 56.8933 83.18C56.7967 82.9638 56.6535 82.7715 56.474 82.617C56.0608 82.2694 55.5314 82.0908 54.992 82.117C54.4945 82.0961 54.0035 82.2364 53.592 82.517C53.4204 82.6352 53.281 82.7942 53.1864 82.9798C53.0917 83.1654 53.0449 83.3717 53.05 83.58C53.0437 83.7661 53.0867 83.9505 53.1744 84.1147C53.2622 84.2788 53.3918 84.4169 53.55 84.515C54.1914 84.8432 54.88 85.0696 55.591 85.186C56.427 85.3472 57.238 85.6182 58.003 85.992C58.525 86.2494 58.9725 86.636 59.303 87.115C59.5969 87.5921 59.7443 88.1449 59.727 88.705C59.7359 89.2028 59.622 89.6951 59.3952 90.1383C59.1684 90.5815 58.8359 90.962 58.427 91.246C57.4289 91.9336 56.2328 92.2751 55.022 92.218C54.1468 92.2326 53.2789 92.0558 52.479 91.7C51.7809 91.3944 51.1793 90.9041 50.739 90.282C50.3345 89.7144 50.1168 89.035 50.116 88.338H52.65C52.6531 88.6124 52.7176 88.8826 52.8388 89.1288C52.9599 89.3751 53.1346 89.5911 53.35 89.761C53.8469 90.115 54.4487 90.2911 55.058 90.261C55.6088 90.2975 56.1572 90.1604 56.626 89.869C56.7939 89.756 56.9308 89.6029 57.0244 89.4236C57.118 89.2442 57.1653 89.0443 57.162 88.842ZM65.272 77.552V80.377H67.324V82.311H65.272V88.8C65.2416 89.1415 65.3349 89.4826 65.535 89.761C65.6622 89.8737 65.8115 89.9586 65.9733 90.0103C66.1352 90.0619 66.3061 90.0792 66.475 90.061C66.7824 90.0604 67.0888 90.0245 67.388 89.954V91.974C66.8289 92.1316 66.2509 92.2127 65.67 92.215C63.6647 92.215 62.662 91.1087 62.662 88.896V82.311H60.75V80.377H62.662V77.552H65.272ZM76.262 92C76.1117 91.6542 76.0108 91.2889 75.962 90.915C75.5734 91.3342 75.1007 91.6667 74.5747 91.8907C74.0488 92.1147 73.4816 92.2252 72.91 92.215C71.865 92.2583 70.8429 91.9005 70.053 91.215C69.6993 90.909 69.4169 90.5291 69.2258 90.1022C69.0348 89.6753 68.9396 89.2117 68.947 88.744C68.9193 88.191 69.0312 87.6399 69.2724 87.1416C69.5135 86.6432 69.8762 86.2134 70.327 85.892C71.5077 85.1594 72.8873 84.8127 74.274 84.9H75.874V84.137C75.9014 83.6087 75.7221 83.0904 75.374 82.692C75.1704 82.499 74.9283 82.3509 74.6637 82.2576C74.3991 82.1642 74.1178 82.1275 73.838 82.15C73.3144 82.1279 72.799 82.2852 72.377 82.596C72.1971 82.7248 72.0507 82.8949 71.9503 83.0921C71.8498 83.2893 71.7983 83.5077 71.8 83.729H69.19C69.1947 83.0784 69.418 82.4483 69.824 81.94C70.2757 81.3627 70.8698 80.913 71.548 80.635C72.3177 80.3113 73.1461 80.1502 73.981 80.162C75.1542 80.1008 76.31 80.4651 77.236 81.188C77.6449 81.546 77.9689 81.9906 78.1844 82.4894C78.3999 82.9883 78.5016 83.5289 78.482 84.072V89.314C78.4469 90.1693 78.597 91.0221 78.922 91.814V92H76.262ZM73.394 90.12C73.9036 90.1217 74.405 89.9922 74.85 89.744C75.2832 89.5146 75.6399 89.1636 75.876 88.734V86.543H74.468C73.7075 86.4899 72.9484 86.664 72.287 87.043C72.0528 87.1984 71.8627 87.4116 71.7348 87.6619C71.6069 87.9121 71.5457 88.1912 71.557 88.472C71.5468 88.6965 71.5863 88.9205 71.6728 89.1279C71.7592 89.3354 71.8904 89.5212 72.057 89.672C72.4304 89.9843 72.9079 90.1442 73.394 90.12ZM85.994 90.131C86.587 90.152 87.1661 89.9488 87.616 89.562C87.8214 89.3875 87.9882 89.1722 88.1059 88.9298C88.2237 88.6875 88.2898 88.4233 88.3 88.154H90.76C90.7307 88.8795 90.4959 89.5817 90.083 90.179C89.65 90.8153 89.059 91.3281 88.368 91.667C87.6419 92.033 86.8391 92.2208 86.026 92.215C85.3054 92.2491 84.586 92.1255 83.9181 91.8528C83.2501 91.5801 82.6498 91.1648 82.159 90.636C81.1478 89.4152 80.6372 87.8564 80.73 86.274V86.005C80.6527 84.4609 81.1588 82.9442 82.148 81.756C82.635 81.2209 83.2341 80.8001 83.9026 80.5235C84.5711 80.2469 85.2924 80.1214 86.015 80.156C87.2552 80.1043 88.4668 80.5376 89.393 81.364C89.8272 81.7706 90.1729 82.2622 90.4086 82.8083C90.6443 83.3544 90.765 83.9432 90.763 84.538H88.3C88.2924 83.9253 88.0497 83.3389 87.622 82.9C87.4096 82.6866 87.1555 82.5193 86.8756 82.4083C86.5957 82.2974 86.296 82.2452 85.995 82.255C85.6189 82.2363 85.244 82.3102 84.9031 82.4703C84.5622 82.6303 84.2658 82.8716 84.04 83.173C83.5204 84.0061 83.2756 84.9813 83.34 85.961V86.38C83.2686 87.368 83.507 88.3538 84.022 89.2C84.248 89.5062 84.5465 89.7516 84.8907 89.9141C85.2348 90.0766 85.614 90.1511 85.994 90.131V90.131ZM96.511 87.016L95.351 88.208V92H92.74V75.5H95.35V85.018L96.167 84L99.379 80.38H102.516L98.2 85.222L102.978 92H99.959L96.511 87.016ZM109.949 92V76.359H114.568C115.855 76.3348 117.125 76.6537 118.247 77.283C119.314 77.8951 120.179 78.8063 120.734 79.904C121.339 81.1098 121.641 82.4444 121.615 83.793V84.577C121.644 85.9332 121.34 87.2758 120.729 88.487C120.164 89.5849 119.286 90.4899 118.205 91.087C117.053 91.7106 115.76 92.0252 114.45 92H109.949ZM112.667 78.551V89.83H114.439C115.051 89.8682 115.665 89.7678 116.233 89.5363C116.801 89.3049 117.31 88.9482 117.721 88.493C118.552 87.3915 118.965 86.0307 118.887 84.653V83.783C118.981 82.3976 118.59 81.0225 117.781 79.894C117.385 79.438 116.889 79.0796 116.332 78.8467C115.775 78.6137 115.172 78.5125 114.569 78.551H112.667ZM129.188 92.215C128.446 92.2451 127.706 92.1218 127.014 91.8529C126.321 91.584 125.692 91.1751 125.165 90.652C124.641 90.0975 124.235 89.443 123.97 88.7277C123.705 88.0124 123.587 87.2509 123.623 86.489V86.167C123.604 85.0925 123.834 84.0281 124.294 83.057C124.708 82.1822 125.361 81.4428 126.179 80.925C126.989 80.4161 127.929 80.1512 128.886 80.162C129.572 80.122 130.258 80.2374 130.893 80.4998C131.529 80.7621 132.096 81.1645 132.554 81.677C133.487 82.9033 133.947 84.4251 133.848 85.963V87.016H126.253C126.285 87.8668 126.627 88.6766 127.214 89.293C127.492 89.5696 127.824 89.7865 128.189 89.9306C128.554 90.0747 128.944 90.1429 129.336 90.131C129.904 90.1417 130.466 90.0156 130.974 89.7632C131.483 89.5108 131.923 89.1396 132.258 88.681L133.665 90.024C133.198 90.7192 132.555 91.2771 131.8 91.64C130.986 92.0313 130.091 92.2282 129.188 92.215V92.215ZM128.876 82.257C128.549 82.2455 128.224 82.307 127.924 82.4371C127.623 82.5672 127.356 82.7626 127.141 83.009C126.661 83.608 126.368 84.3354 126.3 85.1H131.274V84.91C131.273 84.189 131.026 83.4899 130.574 82.928C130.356 82.7002 130.092 82.5223 129.799 82.4065C129.506 82.2907 129.192 82.2397 128.877 82.257H128.876ZM139.833 88.692L142.293 80.378H144.993L140.962 92H138.7L134.639 80.377H137.346L139.833 88.692ZM151.733 92.215C150.991 92.2451 150.251 92.1218 149.559 91.8529C148.866 91.584 148.237 91.1751 147.71 90.652C147.186 90.0975 146.78 89.443 146.515 88.7277C146.25 88.0124 146.132 87.2509 146.168 86.489V86.167C146.149 85.0925 146.379 84.0281 146.839 83.057C147.253 82.1822 147.906 81.4428 148.724 80.925C149.534 80.4161 150.474 80.1512 151.431 80.162C152.117 80.122 152.803 80.2374 153.438 80.4998C154.074 80.7621 154.641 81.1645 155.099 81.677C156.035 82.9023 156.497 84.4243 156.4 85.963V87.016H148.8C148.832 87.8668 149.174 88.6766 149.761 89.293C150.039 89.5696 150.371 89.7865 150.736 89.9306C151.101 90.0747 151.491 90.1429 151.883 90.131C152.451 90.1417 153.013 90.0156 153.521 89.7632C154.03 89.5108 154.47 89.1396 154.805 88.681L156.212 90.024C155.747 90.7185 155.105 91.2763 154.352 91.64C153.536 92.0319 152.641 92.2288 151.736 92.215H151.733ZM151.421 82.257C151.094 82.2455 150.769 82.307 150.469 82.4371C150.168 82.5672 149.901 82.7626 149.686 83.009C149.205 83.6089 148.911 84.3378 148.843 85.104H153.817V84.91C153.816 84.189 153.569 83.4899 153.117 82.928C152.9 82.7009 152.636 82.5234 152.344 82.4076C152.052 82.2917 151.739 82.2404 151.425 82.257H151.421ZM161.2 92H158.59V75.5H161.2V92ZM163.553 86.081C163.536 85.0154 163.767 83.9605 164.229 83C164.643 82.1278 165.304 81.396 166.129 80.895C166.981 80.3948 167.955 80.1401 168.943 80.159C169.65 80.1315 170.355 80.252 171.013 80.5129C171.67 80.7738 172.266 81.1693 172.762 81.674C173.774 82.768 174.339 84.2017 174.346 85.692L174.357 86.304C174.375 87.3652 174.149 88.4163 173.696 89.376C173.286 90.2452 172.628 90.974 171.805 91.471C170.945 91.9756 169.961 92.2321 168.964 92.212C168.228 92.2432 167.494 92.1127 166.814 91.8297C166.134 91.5467 165.524 91.1181 165.027 90.574C163.998 89.3585 163.47 87.7974 163.55 86.207L163.553 86.081ZM166.163 86.307C166.106 87.2982 166.366 88.2819 166.904 89.116C167.136 89.4436 167.446 89.7081 167.807 89.8854C168.167 90.0626 168.566 90.1471 168.967 90.131C169.369 90.1468 169.769 90.0605 170.128 89.8802C170.488 89.6999 170.796 89.4315 171.024 89.1C171.573 88.1929 171.83 87.139 171.76 86.081C171.812 85.0926 171.546 84.1136 171 83.288C170.77 82.9588 170.461 82.6922 170.102 82.5121C169.743 82.3321 169.345 82.2445 168.943 82.257C168.547 82.2456 168.155 82.3323 167.8 82.5094C167.446 82.6865 167.141 82.9485 166.913 83.272C166.35 84.1795 166.087 85.2416 166.163 86.307V86.307ZM186.745 86.307C186.824 87.8364 186.393 89.3487 185.52 90.607C185.144 91.122 184.648 91.5376 184.076 91.8178C183.503 92.098 182.87 92.2344 182.233 92.215C181.662 92.2396 181.093 92.1399 180.564 91.9229C180.035 91.7059 179.56 91.3767 179.171 90.958V96.469H176.561V80.377H178.967L179.074 81.559C179.451 81.0993 179.929 80.7335 180.472 80.4905C181.015 80.2475 181.606 80.134 182.2 80.159C182.843 80.1325 183.482 80.2628 184.063 80.5388C184.644 80.8148 185.149 81.2281 185.535 81.743C186.411 83.0368 186.835 84.5834 186.743 86.143L186.745 86.307ZM184.145 86.081C184.196 85.1121 183.954 84.1503 183.452 83.32C183.239 82.9928 182.944 82.7267 182.597 82.5478C182.249 82.369 181.861 82.2836 181.471 82.3C181 82.2698 180.531 82.379 180.122 82.6139C179.713 82.8489 179.382 83.1991 179.171 83.621V88.777C179.381 89.2063 179.714 89.5638 180.126 89.8048C180.539 90.0457 181.014 90.1592 181.491 90.131C181.874 90.1443 182.255 90.0595 182.596 89.8845C182.937 89.7094 183.228 89.4501 183.441 89.131C183.976 88.2077 184.221 87.1453 184.146 86.081H184.145ZM194.071 92.215C193.329 92.2451 192.589 92.1218 191.897 91.8529C191.204 91.584 190.575 91.1751 190.048 90.652C189.524 90.0975 189.118 89.443 188.853 88.7277C188.588 88.0124 188.47 87.2509 188.506 86.489V86.167C188.487 85.0925 188.717 84.0281 189.177 83.057C189.591 82.1822 190.244 81.4428 191.062 80.925C191.872 80.4161 192.812 80.1512 193.769 80.162C194.455 80.122 195.141 80.2374 195.776 80.4998C196.412 80.7621 196.979 81.1645 197.437 81.677C198.37 82.9033 198.83 84.4251 198.731 85.963V87.016H191.136C191.168 87.8668 191.51 88.6766 192.097 89.293C192.375 89.5696 192.707 89.7865 193.072 89.9306C193.437 90.0747 193.827 90.1429 194.219 90.131C194.787 90.1417 195.349 90.0156 195.857 89.7632C196.366 89.5108 196.806 89.1396 197.141 88.681L198.548 90.024C198.083 90.7186 197.44 91.2765 196.687 91.64C195.871 92.0319 194.976 92.2288 194.071 92.215V92.215ZM193.759 82.257C193.432 82.2455 193.107 82.307 192.807 82.4371C192.506 82.5672 192.239 82.7626 192.024 83.009C191.543 83.6089 191.249 84.3378 191.181 85.104H196.155V84.91C196.154 84.189 195.907 83.4899 195.455 82.928C195.238 82.7005 194.974 82.5227 194.681 82.4069C194.388 82.2911 194.074 82.2399 193.76 82.257H193.759ZM206.843 82.757C206.492 82.6991 206.136 82.6703 205.78 82.671C205.284 82.62 204.785 82.7251 204.351 82.9716C203.918 83.2181 203.573 83.5937 203.363 84.046V92H200.753V80.377H203.245L203.309 81.677C203.568 81.2106 203.948 80.8232 204.41 80.5564C204.871 80.2895 205.397 80.1532 205.93 80.162C206.245 80.152 206.559 80.2029 206.854 80.312L206.843 82.757Z" fill="#4B81FE"/>
<path d="M3 0H698C698.796 0 699.559 0.31607 700.121 0.87868C700.684 1.44129 701 2.20435 701 3V27H0V3C0 2.20435 0.31607 1.44129 0.87868 0.87868C1.44129 0.31607 2.20435 0 3 0V0Z" fill="#3B3B3B"/>
<path d="M21 21C24.866 21 28 17.866 28 14C28 10.134 24.866 7 21 7C17.134 7 14 10.134 14 14C14 17.866 17.134 21 21 21Z" fill="#FF6259"/>
<path d="M42 21C45.866 21 49 17.866 49 14C49 10.134 45.866 7 42 7C38.134 7 35 10.134 35 14C35 17.866 38.134 21 42 21Z" fill="#FFC13D"/>
<path d="M63 21C66.866 21 70 17.866 70 14C70 10.134 66.866 7 63 7C59.134 7 56 10.134 56 14C56 17.866 59.134 21 63 21Z" fill="#17C94B"/>
<path d="M663.988 78.53L660.381 73.119L663.988 67.708C664.064 67.5995 664.117 67.4771 664.144 67.3478C664.172 67.2186 664.173 67.0851 664.149 66.9552C664.124 66.8253 664.074 66.7017 664.001 66.5916C663.928 66.4814 663.833 66.3869 663.723 66.3137C663.613 66.2405 663.49 66.19 663.36 66.1651C663.23 66.1403 663.097 66.1416 662.967 66.169C662.838 66.1964 662.715 66.2493 662.607 66.3247C662.498 66.4001 662.406 66.4964 662.335 66.608L658.361 72.57C658.253 72.733 658.195 72.9243 658.195 73.12C658.195 73.3157 658.253 73.507 658.361 73.67L662.335 79.632C662.426 79.7683 662.549 79.8801 662.693 79.9574C662.837 80.0347 662.998 80.0751 663.162 80.075C663.358 80.0756 663.55 80.0167 663.712 79.906C663.931 79.76 664.083 79.5331 664.135 79.2751C664.186 79.0171 664.134 78.7491 663.988 78.53V78.53Z" fill="#4B81FE"/>
<path d="M673.447 64.242C673.2 64.1509 672.928 64.1607 672.688 64.2693C672.448 64.3778 672.261 64.5764 672.167 64.822L666.205 80.722C666.159 80.8441 666.137 80.9741 666.141 81.1047C666.145 81.2352 666.175 81.3636 666.229 81.4826C666.283 81.6015 666.36 81.7087 666.455 81.7978C666.551 81.8869 666.663 81.9563 666.785 82.002C666.897 82.0445 667.015 82.0662 667.135 82.066C667.337 82.0651 667.534 82.0031 667.7 81.8881C667.866 81.7732 667.993 81.6107 668.065 81.422L674.027 65.522C674.073 65.3999 674.095 65.2699 674.091 65.1393C674.087 65.0088 674.057 64.8804 674.003 64.7614C673.949 64.6425 673.872 64.5353 673.777 64.4462C673.681 64.3571 673.569 64.2877 673.447 64.242V64.242Z" fill="#4B81FE"/>
<path d="M681.876 72.57L677.901 66.608C677.83 66.4964 677.738 66.4001 677.629 66.3247C677.521 66.2493 677.398 66.1964 677.269 66.169C677.139 66.1416 677.006 66.1403 676.876 66.1651C676.746 66.19 676.623 66.2405 676.513 66.3137C676.403 66.3869 676.308 66.4814 676.235 66.5916C676.162 66.7017 676.112 66.8253 676.087 66.9552C676.063 67.0851 676.064 67.2186 676.092 67.3478C676.119 67.4771 676.172 67.5995 676.248 67.708L679.855 73.119L676.248 78.53C676.102 78.7493 676.049 79.0174 676.101 79.2756C676.153 79.5337 676.305 79.7608 676.524 79.907C676.687 80.0163 676.878 80.0744 677.074 80.074C677.237 80.0736 677.398 80.0333 677.542 79.9564C677.687 79.8795 677.81 79.7685 677.901 79.633L681.876 73.671C681.984 73.5076 682.041 73.3162 682.041 73.1205C682.041 72.9248 681.984 72.7334 681.876 72.57V72.57Z" fill="#4B81FE"/>
<path d="M687.008 44.306H665.148C665.015 44.3067 664.884 44.3332 664.762 44.384C664.727 44.4037 664.693 44.4264 664.662 44.452C664.583 44.4912 664.51 44.5399 664.443 44.597L652.521 56.519C652.48 56.569 652.444 56.623 652.414 56.68C652.374 56.7292 652.338 56.7825 652.309 56.839C652.259 56.9607 652.232 57.0912 652.232 57.223V91.006C652.232 91.2696 652.337 91.5225 652.523 91.7089C652.71 91.8953 652.962 92 653.226 92H687.008C687.272 92 687.524 91.8953 687.711 91.7089C687.897 91.5225 688.002 91.2696 688.002 91.006V45.3C688.002 45.0364 687.897 44.7835 687.711 44.5971C687.524 44.4107 687.272 44.306 687.008 44.306V44.306ZM664.155 47.698V56.229H655.623L664.155 47.698ZM686.015 90.012H654.215V58.212H665.145C665.409 58.212 665.661 58.1073 665.848 57.9209C666.034 57.7345 666.139 57.4816 666.139 57.218V46.293H686.014V90.012H686.015Z" fill="#4B81FE"/>
<path d="M26.1562 55.4844H19.9922L18.8203 59H15.082L21.4336 41.9375H24.6914L31.0781 59H27.3398L26.1562 55.4844ZM20.9414 52.6367H25.207L23.0625 46.25L20.9414 52.6367ZM35.0039 46.3203L35.1094 47.7852C36.0156 46.6523 37.2305 46.0859 38.7539 46.0859C40.0977 46.0859 41.0977 46.4805 41.7539 47.2695C42.4102 48.0586 42.7461 49.2383 42.7617 50.8086V59H39.375V50.8906C39.375 50.1719 39.2188 49.6523 38.9062 49.332C38.5938 49.0039 38.0742 48.8398 37.3477 48.8398C36.3945 48.8398 35.6797 49.2461 35.2031 50.0586V59H31.8164V46.3203H35.0039ZM44.8125 52.5664C44.8125 50.5898 45.2539 49.0156 46.1367 47.8438C47.0273 46.6719 48.2422 46.0859 49.7812 46.0859C51.0156 46.0859 52.0352 46.5469 52.8398 47.4688V41H56.2383V59H53.1797L53.0156 57.6523C52.1719 58.707 51.0859 59.2344 49.7578 59.2344C48.2656 59.2344 47.0664 58.6484 46.1602 57.4766C45.2617 56.2969 44.8125 54.6602 44.8125 52.5664ZM48.1992 52.8125C48.1992 54 48.4062 54.9102 48.8203 55.543C49.2344 56.1758 49.8359 56.4922 50.625 56.4922C51.6719 56.4922 52.4102 56.0508 52.8398 55.168V50.1641C52.418 49.2812 51.6875 48.8398 50.6484 48.8398C49.0156 48.8398 48.1992 50.1641 48.1992 52.8125ZM65.9883 49.4961C65.5273 49.4336 65.1211 49.4023 64.7695 49.4023C63.4883 49.4023 62.6484 49.8359 62.25 50.7031V59H58.8633V46.3203H62.0625L62.1562 47.832C62.8359 46.668 63.7773 46.0859 64.9805 46.0859C65.3555 46.0859 65.707 46.1367 66.0352 46.2383L65.9883 49.4961ZM73.2305 59.2344C71.3711 59.2344 69.8555 58.6641 68.6836 57.5234C67.5195 56.3828 66.9375 54.8633 66.9375 52.9648V52.6367C66.9375 51.3633 67.1836 50.2266 67.6758 49.2266C68.168 48.2188 68.8633 47.4453 69.7617 46.9062C70.668 46.3594 71.6992 46.0859 72.8555 46.0859C74.5898 46.0859 75.9531 46.6328 76.9453 47.7266C77.9453 48.8203 78.4453 50.3711 78.4453 52.3789V53.7617H70.3711C70.4805 54.5898 70.8086 55.2539 71.3555 55.7539C71.9102 56.2539 72.6094 56.5039 73.4531 56.5039C74.7578 56.5039 75.7773 56.0312 76.5117 55.0859L78.1758 56.9492C77.668 57.668 76.9805 58.2305 76.1133 58.6367C75.2461 59.0352 74.2852 59.2344 73.2305 59.2344ZM72.8438 48.8281C72.1719 48.8281 71.625 49.0547 71.2031 49.5078C70.7891 49.9609 70.5234 50.6094 70.4062 51.4531H75.1172V51.1836C75.1016 50.4336 74.8984 49.8555 74.5078 49.4492C74.1172 49.0352 73.5625 48.8281 72.8438 48.8281ZM84.9492 54.207L87.293 46.3203H90.9258L85.8281 60.9688L85.5469 61.6367C84.7891 63.293 83.5391 64.1211 81.7969 64.1211C81.3047 64.1211 80.8047 64.0469 80.2969 63.8984V61.332L80.8125 61.3438C81.4531 61.3438 81.9297 61.2461 82.2422 61.0508C82.5625 60.8555 82.8125 60.5312 82.9922 60.0781L83.3906 59.0352L78.9492 46.3203H82.5938L84.9492 54.207ZM108.727 51.6055H101.977V56.1758H109.898V59H98.4609V41.9375H109.875V44.7852H101.977V48.8516H108.727V51.6055ZM115.312 59H111.914V41H115.312V59ZM122.848 54.207L125.191 46.3203H128.824L123.727 60.9688L123.445 61.6367C122.688 63.293 121.438 64.1211 119.695 64.1211C119.203 64.1211 118.703 64.0469 118.195 63.8984V61.332L118.711 61.3438C119.352 61.3438 119.828 61.2461 120.141 61.0508C120.461 60.8555 120.711 60.5312 120.891 60.0781L121.289 59.0352L116.848 46.3203H120.492L122.848 54.207ZM137.32 59C137.164 58.6953 137.051 58.3164 136.98 57.8633C136.16 58.7773 135.094 59.2344 133.781 59.2344C132.539 59.2344 131.508 58.875 130.688 58.1562C129.875 57.4375 129.469 56.5312 129.469 55.4375C129.469 54.0938 129.965 53.0625 130.957 52.3438C131.957 51.625 133.398 51.2617 135.281 51.2539H136.84V50.5273C136.84 49.9414 136.688 49.4727 136.383 49.1211C136.086 48.7695 135.613 48.5938 134.965 48.5938C134.395 48.5938 133.945 48.7305 133.617 49.0039C133.297 49.2773 133.137 49.6523 133.137 50.1289H129.75C129.75 49.3945 129.977 48.7148 130.43 48.0898C130.883 47.4648 131.523 46.9766 132.352 46.625C133.18 46.2656 134.109 46.0859 135.141 46.0859C136.703 46.0859 137.941 46.4805 138.855 47.2695C139.777 48.0508 140.238 49.1523 140.238 50.5742V56.0703C140.246 57.2734 140.414 58.1836 140.742 58.8008V59H137.32ZM134.52 56.6445C135.02 56.6445 135.48 56.5352 135.902 56.3164C136.324 56.0898 136.637 55.7891 136.84 55.4141V53.2344H135.574C133.879 53.2344 132.977 53.8203 132.867 54.9922L132.855 55.1914C132.855 55.6133 133.004 55.9609 133.301 56.2344C133.598 56.5078 134.004 56.6445 134.52 56.6445ZM145.957 46.3203L146.062 47.7852C146.969 46.6523 148.184 46.0859 149.707 46.0859C151.051 46.0859 152.051 46.4805 152.707 47.2695C153.363 48.0586 153.699 49.2383 153.715 50.8086V59H150.328V50.8906C150.328 50.1719 150.172 49.6523 149.859 49.332C149.547 49.0039 149.027 48.8398 148.301 48.8398C147.348 48.8398 146.633 49.2461 146.156 50.0586V59H142.77V46.3203H145.957Z" fill="#333333"/>
</svg>
